# xmcd
#
# Track frame offsets: 
#        150
#        13617
#        29730
#        45849
#        72290
#        84034
#        108066
#        124914
#        140400
#        157889
#        182742
#        210656
#
# Disc length: 3005 seconds
#
# Revision: 5
# Processed by: cddbd v1.4PL0 Copyright (c) Steve Scherf et al.
# Submitted via: ExactAudioCopy v0.95a2
#
DISCID=920bbb0c
DTITLE=Charlie Robison - Bandera
DYEAR=1996
DGENRE=Country
TTITLE0=Red Letter Day
TTITLE1=She Leaves Her Heart At Home
TTITLE2=Good Neighbor
TTITLE3=Desperate Times
TTITLE4=Where Do You Hide Your Heart
TTITLE5=Always
TTITLE6=Barlight
TTITLE7=That's Good
TTITLE8=I Don't Feel That Way
TTITLE9=Only The Blues
TTITLE10=Out Of Your Mind
TTITLE11=I Am A Pilgrim
EXTD=YEAR: 1996 ID3G:   2
EXTT0=
EXTT1=
EXTT2=
EXTT3=
EXTT4=
EXTT5=
EXTT6=
EXTT7=
EXTT8=
EXTT9=
EXTT10=
EXTT11=
PLAYORDER=
